<svg width="24" height="24" viewBox="0 0 24 24" fill="none" xmlns="http://www.w3.org/2000/svg">
<path d="M15.7957 18.7051C16.0071 18.9164 16.1258 19.2031 16.1258 19.5019C16.1258 19.8008 16.0071 20.0875 15.7957 20.2988C15.5844 20.5102 15.2977 20.6289 14.9989 20.6289C14.7 20.6289 14.4133 20.5102 14.202 20.2988L6.70198 12.7988C6.5971 12.6943 6.51388 12.5701 6.4571 12.4334C6.40032 12.2966 6.37109 12.15 6.37109 12.002C6.37109 11.8539 6.40032 11.7073 6.4571 11.5705C6.51388 11.4338 6.5971 11.3096 6.70198 11.2051L14.202 3.70508C14.4133 3.49373 14.7 3.375 14.9989 3.375C15.2977 3.375 15.5844 3.49373 15.7957 3.70508C16.0071 3.91642 16.1258 4.20307 16.1258 4.50195C16.1258 4.80084 16.0071 5.08748 15.7957 5.29883L9.09354 12.001L15.7957 18.7051Z" fill="#562CAB"/>
</svg>
