<svg width="20" height="20" viewBox="0 0 20 20" fill="none" xmlns="http://www.w3.org/2000/svg">
<path d="M18.9844 7.50197C18.8894 7.21081 18.711 6.954 18.4712 6.76343C18.2315 6.57286 17.941 6.45694 17.636 6.43009L13.1828 6.04493L11.4406 1.89337C11.3208 1.61105 11.1205 1.37024 10.8648 1.20095C10.609 1.03167 10.3091 0.941406 10.0024 0.941406C9.69566 0.941406 9.39573 1.03167 9.13997 1.20095C8.88421 1.37024 8.68393 1.61105 8.56408 1.89337L6.81955 6.04493L2.36643 6.43009C2.0597 6.45549 1.7673 6.57091 1.52593 6.76186C1.28455 6.95282 1.10495 7.21081 1.00965 7.50346C0.91435 7.79611 0.907605 8.11039 0.990257 8.40686C1.07291 8.70334 1.24128 8.96879 1.47424 9.16993L4.85861 12.1231L3.84299 16.5168C3.77334 16.816 3.79342 17.1291 3.90073 17.4169C4.00804 17.7048 4.19782 17.9546 4.44633 18.1351C4.69484 18.3157 4.99107 18.419 5.29798 18.4322C5.60489 18.4453 5.90886 18.3677 6.1719 18.209L10 15.884L13.8281 18.209C14.0912 18.3674 14.395 18.4448 14.7018 18.4316C15.0086 18.4183 15.3046 18.315 15.553 18.1344C15.8014 17.9539 15.9911 17.7042 16.0983 17.4165C16.2056 17.1288 16.2258 16.8159 16.1563 16.5168L15.1406 12.1231L18.525 9.16993C18.7574 8.96806 18.9249 8.70207 19.0066 8.40533C19.0884 8.10859 19.0806 7.79432 18.9844 7.50197ZM13.7696 10.8317C13.5553 11.0181 13.3959 11.2593 13.3085 11.5295C13.2211 11.7998 13.209 12.0887 13.2735 12.3652L14.1633 16.2184L10.8086 14.1809C10.565 14.0325 10.2853 13.9541 10 13.9541C9.71478 13.9541 9.43505 14.0325 9.19143 14.1809L5.83674 16.2184L6.72658 12.3652C6.79107 12.0887 6.77896 11.7998 6.69155 11.5295C6.60414 11.2593 6.44474 11.0181 6.23049 10.8317L3.25471 8.23556L7.1719 7.8965C7.45555 7.87221 7.72712 7.77057 7.95702 7.60266C8.18692 7.43474 8.36636 7.20697 8.4758 6.94415L10 3.31212L11.5242 6.94415C11.6337 7.20697 11.8131 7.43474 12.043 7.60266C12.2729 7.77057 12.5445 7.87221 12.8281 7.8965L16.7453 8.23556L13.7696 10.8317Z" fill="white"/>
</svg>
