<svg width="110" height="110" viewBox="0 0 110 110" fill="none" xmlns="http://www.w3.org/2000/svg">
	<circle opacity="0.75" cx="55" cy="55" r="55" fill="white" />
	<circle cx="55" cy="55" r="40" fill="white" />
	<circle cx="55" cy="55" r="40" fill="white" />
	<path
		d="M46.5 41.4375C47.4375 40.875 48.625 40.875 49.5625 41.5L67.5625 52.4375C68.4375 53 69 54 69 55C69 56.0625 68.4375 57.0625 67.5625 57.5625L49.5625 68.5625C48.625 69.125 47.4375 69.1875 46.5 68.625C45.5625 68.125 45 67.125 45 66V44C45 42.9375 45.5625 41.9375 46.5 41.4375ZM48.5 43.1875C48.1875 43 47.8125 43 47.5 43.1875C47.1875 43.3125 47 43.6875 47 44V66C47 66.375 47.1875 66.75 47.5 66.875C47.8125 67.0625 48.1875 67.0625 48.5 66.875L66.5 55.875C66.8125 55.6875 67 55.375 67 55C67 54.6875 66.8125 54.375 66.5 54.1875L48.5 43.1875Z"
		fill="#056B5A" />
</svg>