<svg width="32" height="32" viewBox="0 0 32 32" fill="none" xmlns="http://www.w3.org/2000/svg">
<path fill-rule="evenodd" clip-rule="evenodd" d="M15.5742 7.13259C15.8305 6.9558 16.1695 6.9558 16.4258 7.13259L22.8113 11.5364C23.5556 12.0497 24 12.8961 24 13.8002V22.25C24 23.7688 22.7688 25 21.25 25H10.75C9.23122 25 8 23.7688 8 22.25V13.8002C8 12.8961 8.44443 12.0497 9.18873 11.5364L15.5742 7.13259ZM14.5 23.5H17.5V18.75C17.5 18.6119 17.3881 18.5 17.25 18.5H14.75C14.6119 18.5 14.5 18.6119 14.5 18.75V23.5ZM19 23.5V18.75C19 17.7835 18.2165 17 17.25 17H14.75C13.7835 17 13 17.7835 13 18.75V23.5H10.75C10.0596 23.5 9.5 22.9404 9.5 22.25V13.8002C9.5 13.3892 9.70201 13.0045 10.0403 12.7712L16 8.66106L21.9597 12.7712C22.298 13.0045 22.5 13.3892 22.5 13.8002V22.25C22.5 22.9404 21.9404 23.5 21.25 23.5H19Z" fill="#555F6D"/>
</svg>
