<svg width="60" height="60" viewBox="0 0 60 60" fill="none" xmlns="http://www.w3.org/2000/svg">
<g clip-path="url(#clip0_11288_1062)">
<mask id="mask0_11288_1062" style="mask-type:luminance" maskUnits="userSpaceOnUse" x="0" y="0" width="60" height="60">
<path d="M0 0H60V60H0V0Z" fill="white"/>
</mask>
<g mask="url(#mask0_11288_1062)">
<path fill-rule="evenodd" clip-rule="evenodd" d="M53.1423 24.7501C52.5684 19.5562 50.123 14.7489 46.2631 11.2265C42.4031 7.7041 37.3927 5.70762 32.1681 5.61011C28.1765 5.65379 24.2791 6.82753 20.9273 8.99533C17.5755 11.1631 14.9064 14.2363 13.2295 17.8587C9.00559 19.1439 5.37358 21.884 2.97791 25.5926C0.582239 29.3012 -0.422173 33.7386 0.142898 38.1174C0.70797 42.4962 2.80598 46.5332 6.06467 49.5121C9.32335 52.4911 13.532 54.2193 17.9438 54.3901H44.1938C46.3069 54.3566 48.3927 53.9065 50.3316 53.0655C52.2704 52.2245 54.0243 51.0091 55.4926 49.489C56.9609 47.969 58.1148 46.1741 58.8882 44.2072C59.6616 42.2404 60.0392 40.1403 59.9995 38.0272C59.9915 35.4289 59.3655 32.8698 58.1732 30.5612C56.9809 28.2525 55.2565 26.2607 53.1423 24.7501ZM41.4595 34.2858L31.2852 44.473C30.9438 44.8132 30.4815 45.0042 29.9995 45.0042C29.5175 45.0042 29.0552 44.8132 28.7138 44.473L18.5395 34.2858C18.2842 34.0313 18.1101 33.7068 18.0394 33.3533C17.9686 32.9999 18.0043 32.6334 18.142 32.3002C18.2797 31.9671 18.5131 31.6822 18.8127 31.4818C19.1124 31.2814 19.4647 31.1744 19.8252 31.1744H26.3566V22.543C26.3566 21.5768 26.7404 20.6502 27.4236 19.9671C28.1068 19.2839 29.0333 18.9001 29.9995 18.9001C30.9656 18.9001 31.8922 19.2839 32.5754 19.9671C33.2585 20.6502 33.6423 21.5768 33.6423 22.543V31.183H40.1695C40.5277 31.1858 40.8771 31.294 41.1743 31.494C41.4714 31.694 41.7032 31.977 41.8407 32.3077C41.9782 32.6385 42.0154 33.0024 41.9476 33.3541C41.8798 33.7058 41.7101 34.0299 41.4595 34.2858Z" fill="#056B5A"/>
</g>
</g>
<defs>
<clipPath id="clip0_11288_1062">
<rect width="60" height="60" fill="white"/>
</clipPath>
</defs>
</svg>
