<svg width="69" height="69" viewBox="0 0 69 69" fill="none" xmlns="http://www.w3.org/2000/svg">
<path d="M23.9309 20.3837C23.9309 21.8457 23.7046 23.3358 23.252 24.7978C15.1617 22.3517 10.5791 13.889 13.0401 5.81982C19.6312 7.81602 23.9309 13.8609 23.9309 20.3837Z" fill="#05BD7D"/>
<path d="M45.4309 24.6855C44.9783 23.2235 44.752 21.7334 44.752 20.2713C44.752 13.7486 49.0234 7.73184 55.6428 5.70752C58.1038 13.7767 53.5495 22.2394 45.4309 24.6855Z" fill="#05BD7D"/>
<path d="M41.6116 44.76C41.8096 43.9166 42.0359 43.045 42.347 41.9485C39.7729 42.8482 37.5664 44.4508 35.9257 46.5594C35.36 47.2904 34.8508 48.0777 34.4265 48.9211C33.9738 48.0214 33.4364 47.2061 32.814 46.4189C31.1734 44.3945 28.9952 42.8201 26.5059 41.9485C26.7604 42.792 27.015 43.7198 27.2413 44.76C27.2696 44.9287 27.3262 45.1255 27.3545 45.2942C29.9853 46.7562 31.9937 49.2304 32.814 52.1825V56.681V56.7935V68.8269H35.9257V56.8778V56.7654V52.5761C36.6895 49.4553 38.7262 46.8125 41.4984 45.2942C41.5267 45.0974 41.555 44.9287 41.6116 44.76Z" fill="#056B5A"/>
<path d="M27.0432 46.9247C26.9017 46.2499 26.7603 45.5751 26.5906 44.9004C26.3643 43.9444 26.1097 42.9885 25.8268 42.0607C25.7985 41.9482 25.7419 41.8358 25.7136 41.6952C25.1196 39.6146 24.3841 37.5622 23.5355 35.566C22.9697 33.9634 22.2342 32.4733 21.3573 31.0675C21.3573 31.0394 21.329 31.0113 21.3007 30.9832C20.2824 29.2963 19.0377 27.7499 17.6516 26.3722C15.5583 24.2917 13.1256 22.6048 10.4099 21.3677C7.26998 19.9057 3.734 19.0903 0 19.0903C0 29.6618 6.64764 38.715 16.0392 42.2856C18.2457 43.1291 20.6218 43.6914 23.1112 43.8601V43.8882C24.3558 48.3867 25.0347 53.1101 25.0347 58.0022C25.0347 59.7735 24.9499 61.5166 24.7801 63.2598C24.667 64.3001 24.5538 65.3403 24.3841 66.3806C24.2427 67.196 24.1012 68.0113 23.9315 68.7985H27.128C27.1563 68.6298 27.2129 68.433 27.2412 68.2643C27.4392 67.196 27.6372 66.0994 27.7504 65.0029C27.8069 64.6937 27.8352 64.3844 27.8635 64.1033V64.0751C28.0615 62.0789 28.1747 60.0546 28.1747 58.0022C28.1747 57.8054 28.1747 57.6367 28.1464 57.4399C28.0898 53.8692 27.7221 50.3548 27.0432 46.9247Z" fill="#056B5A"/>
<path d="M58.3869 21.3679C55.6713 22.605 53.2385 24.2919 51.1452 26.3725C49.7591 27.7502 48.5145 29.2965 47.4961 30.9834C47.4678 31.0115 47.4395 31.0397 47.4395 31.0397C46.5626 32.4454 45.8554 33.9637 45.2614 35.5381C45.2614 35.5663 45.2331 35.5944 45.2331 35.6225C45.2331 35.6506 45.2048 35.6787 45.2048 35.7068C44.3845 37.6468 43.649 39.6711 43.0549 41.6954C43.0266 41.7517 43.0266 41.836 42.9983 41.9204C42.7155 42.9044 42.4326 43.8884 42.2063 44.9006C42.0648 45.5191 41.9234 46.1658 41.8103 46.7843C41.1031 50.2988 40.707 53.9538 40.707 57.6932V58.0305C40.707 60.2236 40.8202 62.3884 41.0748 64.4971V64.5252C41.1031 64.6939 41.1031 64.8907 41.1313 65.0594C41.2728 66.1559 41.4425 67.2243 41.6405 68.3208C41.6688 68.4895 41.6971 68.6582 41.7254 68.8269H44.9219C44.7522 68.0397 44.5825 67.2243 44.4693 66.409C44.3279 65.4811 44.1864 64.5533 44.1016 63.6255L44.0733 63.5974C43.9036 61.7699 43.8187 59.9143 43.8187 58.0305C43.8187 53.1384 44.4693 48.415 45.7423 43.9166C45.7423 43.9166 45.7423 43.9166 45.7423 43.8884H45.6291C45.6574 43.8884 45.714 43.8884 45.7423 43.8884C48.2033 43.6916 50.5795 43.1574 52.7859 42.314C62.1775 38.7433 68.8534 29.6901 68.8534 19.0906C65.1194 19.0906 61.5552 19.8778 58.3869 21.3679Z" fill="#056B5A"/>
<path d="M41.7242 17.5722C41.7242 23.9263 39.2631 30.3085 34.3976 35.1444C24.6383 25.4726 24.6383 9.72796 34.3976 0C39.2631 4.86398 41.7242 11.2181 41.7242 17.5722Z" fill="#056B5A"/>
</svg>
