<svg width="154" height="99" viewBox="0 0 154 99" fill="none" xmlns="http://www.w3.org/2000/svg">
<path d="M32.7569 27.2699C32.7569 29.2259 32.4541 31.2194 31.8486 33.1753C21.025 29.9029 14.8942 18.5811 18.1867 7.78589C27.0045 10.4565 32.7569 18.5435 32.7569 27.2699Z" fill="white"/>
<path d="M61.5216 33.0252C60.916 31.0692 60.6133 29.0757 60.6133 27.1198C60.6133 18.3933 66.3278 10.3439 75.1834 7.63574C78.4759 18.431 72.3829 29.7528 61.5216 33.0252Z" fill="white"/>
<path d="M56.4121 59.8815C56.677 58.7531 56.9798 57.5871 57.3961 56.1201C53.9522 57.3238 51.0003 59.4678 48.8054 62.2888C48.0485 63.2668 47.3673 64.32 46.7996 65.4484C46.1941 64.2447 45.475 63.1539 44.6425 62.1007C42.4475 59.3925 39.5334 57.2862 36.2031 56.1201C36.5437 57.2485 36.8843 58.4898 37.1871 59.8815C37.2249 60.1072 37.3006 60.3705 37.3385 60.5962C40.858 62.5521 43.545 65.8621 44.6425 69.8116V75.8298V75.9803V92.0791H48.8054V76.0931V75.9427V70.3382C49.8272 66.163 52.552 62.6273 56.2607 60.5962C56.2986 60.3329 56.3364 60.1072 56.4121 59.8815Z" fill="white"/>
<path d="M36.9216 62.7779C36.7323 61.8751 36.5431 60.9724 36.3161 60.0697C36.0133 58.7908 35.6727 57.5119 35.2943 56.2707C35.2564 56.1202 35.1807 55.9697 35.1429 55.7817C34.3481 52.9982 33.3642 50.2524 32.2288 47.5818C31.4719 45.4378 30.488 43.4443 29.3148 41.5636C29.3148 41.526 29.277 41.4884 29.2391 41.4507C27.8767 39.1939 26.2116 37.1251 24.3572 35.2821C21.5567 32.4986 18.3021 30.2418 14.669 28.5868C10.4682 26.6308 5.73767 25.54 0.742188 25.54C0.742188 39.6829 9.63565 51.7946 22.2 56.5716C25.1519 57.7 28.3309 58.4523 31.6612 58.6779V58.7156C33.3263 64.7338 34.2346 71.0529 34.2346 77.5978C34.2346 79.9675 34.1211 82.2995 33.894 84.6316C33.7426 86.0233 33.5912 87.415 33.3642 88.8067C33.175 89.8975 32.9857 90.9883 32.7587 92.0415H37.0351C37.0729 91.8158 37.1486 91.5526 37.1865 91.3269C37.4514 89.8975 37.7163 88.4306 37.8677 86.9636C37.9434 86.5499 37.9812 86.1361 38.0191 85.76V85.7224C38.284 83.0518 38.4353 80.3436 38.4353 77.5978C38.4353 77.3345 38.4353 77.1088 38.3975 76.8455C38.3218 72.0685 37.8298 67.3668 36.9216 62.7779Z" fill="white"/>
<path d="M78.854 28.5869C75.2209 30.2419 71.9663 32.4987 69.1658 35.2822C67.3114 37.1253 65.6463 39.194 64.2839 41.4509C64.246 41.4885 64.2082 41.5261 64.2082 41.5261C63.035 43.4068 62.0889 45.438 61.2941 47.5443C61.2941 47.5819 61.2563 47.6196 61.2563 47.6572C61.2563 47.6948 61.2185 47.7324 61.2185 47.77C60.121 50.3654 59.137 53.0736 58.3423 55.7818C58.3044 55.857 58.3044 55.9699 58.2666 56.0827C57.8881 57.3992 57.5097 58.7157 57.2069 60.0698C57.0177 60.8973 56.8285 61.7624 56.6771 62.5899C55.731 67.2917 55.2012 72.1815 55.2012 77.1841V77.6355C55.2012 80.5694 55.3526 83.4657 55.6932 86.2867V86.3243C55.731 86.55 55.731 86.8133 55.7688 87.039C55.9581 88.5059 56.1851 89.9353 56.45 91.4022C56.4879 91.6279 56.5257 91.8536 56.5636 92.0793H60.84C60.6129 91.0261 60.3859 89.9353 60.2345 88.8445C60.0453 87.6032 59.856 86.3619 59.7425 85.1207L59.7047 85.0831C59.4776 82.6382 59.3641 80.1556 59.3641 77.6355C59.3641 71.0907 60.2345 64.7715 61.9375 58.7533C61.9375 58.7533 61.9375 58.7533 61.9375 58.7157H61.7861C61.824 58.7157 61.8997 58.7157 61.9375 58.7157C65.23 58.4524 68.4089 57.7377 71.3608 56.6093C83.9252 51.8323 92.8565 39.7206 92.8565 25.5402C87.861 25.5402 83.0926 26.5934 78.854 28.5869Z" fill="white"/>
<path d="M56.5628 23.5087C56.5628 32.0095 53.2703 40.5479 46.761 47.0175C33.7047 34.0783 33.7047 13.0144 46.761 0C53.2703 6.50722 56.5628 15.008 56.5628 23.5087Z" fill="white"/>
<path d="M64.9648 85.6471V79.3279C64.9648 77.6353 65.5704 76.2436 66.7435 75.1528C67.9167 74.0996 69.8089 73.573 72.4202 73.573C74.918 73.573 76.7723 74.062 77.9455 75.0399C79.1187 76.0179 79.7242 77.372 79.7242 79.0646V83.3526H68.2195V85.9104C68.2195 87.3773 68.5222 88.4305 69.0899 89.0323C69.6954 89.6342 70.8307 89.9351 72.5716 89.9351C73.5934 89.9351 74.3881 89.8975 74.9936 89.8222C75.5992 89.747 76.0154 89.5213 76.3182 89.1452C76.5831 88.769 76.7723 88.1296 76.8859 87.1893H79.7242C79.5728 88.6186 79.2701 89.7094 78.7781 90.4617C78.2861 91.2139 77.5671 91.7029 76.5831 92.0038C75.5992 92.2671 74.2746 92.4176 72.5716 92.4176C69.8468 92.4176 67.9167 91.8534 66.7435 90.725C65.5704 89.5965 64.9648 87.9039 64.9648 85.6471ZM76.5831 81.2086V78.7261C76.5831 77.6353 76.2047 76.9206 75.4478 76.5445C74.6909 76.206 73.6691 76.0179 72.4202 76.0179C71.1335 76.0179 70.1117 76.2436 69.3548 76.695C68.5979 77.1463 68.2195 77.9362 68.2195 79.027V81.2086H76.5831Z" fill="white"/>
<path d="M83.4336 66.3134H86.6504V83.0892L95.3925 73.9114H98.912L91.4945 81.8855L99.6689 92.0413H95.9223L89.413 83.6158L86.6504 86.324V92.0413H83.4336V66.3134Z" fill="white"/>
<path d="M108.258 92.4176C106.442 92.4176 104.966 92.1543 103.868 91.6653C102.771 91.1763 101.976 90.4993 101.446 89.6342C100.954 88.769 100.689 87.7911 100.689 86.6627V79.3655C100.689 78.2371 100.954 77.2592 101.446 76.394C101.938 75.5289 102.733 74.8519 103.868 74.3253C104.966 73.8363 106.442 73.573 108.258 73.573C110.075 73.573 111.513 73.8363 112.648 74.3253C113.746 74.8143 114.578 75.4913 115.07 76.394C115.562 77.2592 115.827 78.2747 115.827 79.3655V86.6627C115.827 87.7911 115.562 88.769 115.07 89.6342C114.578 90.4993 113.746 91.1763 112.648 91.6653C111.513 92.1543 110.075 92.4176 108.258 92.4176ZM108.258 89.9727C109.507 89.9727 110.567 89.747 111.362 89.2956C112.156 88.8443 112.573 88.0544 112.573 86.9636V79.1023C112.573 77.9738 112.156 77.1839 111.362 76.7326C110.567 76.2812 109.507 76.0555 108.258 76.0555C106.972 76.0555 105.95 76.2812 105.155 76.7326C104.36 77.1839 103.944 77.9738 103.944 79.1023V86.9636C103.944 88.092 104.36 88.8819 105.155 89.2956C105.912 89.747 106.972 89.9727 108.258 89.9727Z" fill="white"/>
<path d="M119.764 73.9115H122.98V75.6794C123.51 75.0776 124.229 74.551 125.1 74.1748C125.97 73.7987 127.068 73.573 128.392 73.573C129.906 73.573 131.117 73.7987 132.025 74.2877C132.934 74.7766 133.615 75.4161 133.993 76.206C134.41 76.9959 134.599 77.8986 134.599 78.839V92.0038H131.382V78.6509C131.382 77.7481 131.041 77.0711 130.322 76.6573C129.603 76.2436 128.695 76.0179 127.56 76.0179C125.97 76.0179 124.835 76.3188 124.078 76.9206C123.359 77.5225 122.98 78.2371 122.98 79.1399V92.0415H119.764V73.9115Z" fill="white"/>
<path d="M145.763 98.9999C144.552 98.9999 143.492 98.9623 142.584 98.8495C141.714 98.7366 140.919 98.5862 140.238 98.3229L140.957 95.9156C141.449 96.1037 142.13 96.2541 143 96.367C143.871 96.4798 144.741 96.555 145.574 96.555C147.163 96.555 148.261 96.2165 148.98 95.5771C149.661 94.9 150.039 93.9221 150.039 92.5679V90.0478C149.699 90.3487 149.245 90.612 148.639 90.8001C148.071 90.9882 147.466 91.1386 146.86 91.2138C146.255 91.2891 145.763 91.3267 145.347 91.3267C143.038 91.3267 141.297 90.8377 140.162 89.8221C139.027 88.8442 138.459 87.3772 138.459 85.5341V79.5535C138.459 77.748 139.027 76.2811 140.124 75.1903C141.222 74.0995 143 73.5353 145.347 73.5353C145.952 73.5353 146.596 73.6105 147.277 73.7986C147.92 73.9866 148.526 74.2123 149.018 74.4756C149.51 74.7389 149.85 75.0398 150.039 75.3031V73.8362H153.256V91.5148C153.256 92.9441 153.029 94.1853 152.575 95.3138C152.121 96.4422 151.326 97.3073 150.229 97.9467C149.131 98.699 147.655 98.9999 145.763 98.9999ZM145.877 88.8818C147.088 88.8818 147.996 88.6937 148.677 88.3552C149.358 88.0167 149.812 87.7157 150.039 87.5277V78.5379C150.039 77.748 149.699 77.1462 149.018 76.6948C148.336 76.2435 147.277 76.0554 145.839 76.0554C144.552 76.0554 143.568 76.3187 142.811 76.8077C142.054 77.3343 141.676 78.1242 141.676 79.2526V86.0607C141.676 87.1515 142.092 87.9038 142.887 88.28C143.682 88.6937 144.665 88.8818 145.877 88.8818Z" fill="white"/>
</svg>
