<svg width="114" height="74" viewBox="0 0 114 74" fill="none" xmlns="http://www.w3.org/2000/svg">
<path d="M23.9309 20.3837C23.9309 21.8457 23.7046 23.3358 23.252 24.7978C15.1617 22.3517 10.5791 13.889 13.0401 5.81982C19.6312 7.81602 23.9309 13.8609 23.9309 20.3837Z" fill="#05BD7D"/>
<path d="M45.4309 24.6855C44.9783 23.2235 44.752 21.7334 44.752 20.2713C44.752 13.7486 49.0234 7.73184 55.6428 5.70752C58.1038 13.7767 53.5495 22.2394 45.4309 24.6855Z" fill="#05BD7D"/>
<path d="M41.6116 44.76C41.8096 43.9166 42.0359 43.045 42.347 41.9485C39.7729 42.8482 37.5664 44.4508 35.9257 46.5594C35.36 47.2904 34.8508 48.0777 34.4265 48.9211C33.9738 48.0214 33.4364 47.2061 32.814 46.4189C31.1734 44.3945 28.9952 42.8201 26.5059 41.9485C26.7604 42.792 27.015 43.7198 27.2413 44.76C27.2696 44.9287 27.3262 45.1255 27.3545 45.2942C29.9853 46.7562 31.9937 49.2304 32.814 52.1825V56.681V56.7935V68.8269H35.9257V56.8778V56.7654V52.5761C36.6895 49.4553 38.7262 46.8125 41.4984 45.2942C41.5267 45.0974 41.555 44.9287 41.6116 44.76Z" fill="#056B5A"/>
<path d="M27.0432 46.9247C26.9017 46.2499 26.7603 45.5751 26.5906 44.9004C26.3643 43.9444 26.1097 42.9885 25.8268 42.0607C25.7985 41.9482 25.7419 41.8358 25.7136 41.6952C25.1196 39.6146 24.3841 37.5622 23.5355 35.566C22.9697 33.9634 22.2342 32.4733 21.3573 31.0675C21.3573 31.0394 21.329 31.0113 21.3007 30.9832C20.2824 29.2963 19.0377 27.7499 17.6516 26.3722C15.5583 24.2917 13.1256 22.6048 10.4099 21.3677C7.26998 19.9057 3.734 19.0903 0 19.0903C0 29.6618 6.64764 38.715 16.0392 42.2856C18.2457 43.1291 20.6218 43.6914 23.1112 43.8601V43.8882C24.3558 48.3867 25.0347 53.1101 25.0347 58.0022C25.0347 59.7735 24.9499 61.5166 24.7801 63.2598C24.667 64.3001 24.5538 65.3403 24.3841 66.3806C24.2427 67.196 24.1012 68.0113 23.9315 68.7985H27.128C27.1563 68.6298 27.2129 68.433 27.2412 68.2643C27.4392 67.196 27.6372 66.0994 27.7504 65.0029C27.8069 64.6937 27.8352 64.3844 27.8635 64.1033V64.0751C28.0615 62.0789 28.1747 60.0546 28.1747 58.0022C28.1747 57.8054 28.1747 57.6367 28.1464 57.4399C28.0898 53.8692 27.7221 50.3548 27.0432 46.9247Z" fill="#056B5A"/>
<path d="M58.386 21.3679C55.6703 22.605 53.2376 24.2919 51.1443 26.3725C49.7582 27.7502 48.5135 29.2965 47.4951 30.9834C47.4668 31.0115 47.4386 31.0397 47.4386 31.0397C46.5616 32.4454 45.8544 33.9637 45.2604 35.5381C45.2604 35.5663 45.2321 35.5944 45.2321 35.6225C45.2321 35.6506 45.2038 35.6787 45.2038 35.7068C44.3835 37.6468 43.648 39.6711 43.0539 41.6954C43.0257 41.7517 43.0257 41.836 42.9974 41.9204C42.7145 42.9044 42.4316 43.8884 42.2053 44.9006C42.0639 45.5191 41.9224 46.1658 41.8093 46.7843C41.1021 50.2988 40.7061 53.9538 40.7061 57.6932V58.0305C40.7061 60.2236 40.8192 62.3884 41.0738 64.4971V64.5252C41.1021 64.6939 41.1021 64.8907 41.1304 65.0594C41.2718 66.1559 41.4415 67.2243 41.6396 68.3208C41.6678 68.4895 41.6961 68.6582 41.7244 68.8269H44.9209C44.7512 68.0397 44.5815 67.2243 44.4683 66.409C44.3269 65.4811 44.1855 64.5533 44.1006 63.6255L44.0723 63.5974C43.9026 61.7699 43.8177 59.9143 43.8177 58.0305C43.8177 53.1384 44.4683 48.415 45.7413 43.9166C45.7413 43.9166 45.7413 43.9166 45.7413 43.8884H45.6281C45.6564 43.8884 45.713 43.8884 45.7413 43.8884C48.2023 43.6916 50.5785 43.1574 52.785 42.314C62.1765 38.7433 68.8525 29.6901 68.8525 19.0906C65.1185 19.0906 61.5542 19.8778 58.386 21.3679Z" fill="#056B5A"/>
<path d="M41.7242 17.5722C41.7242 23.9263 39.2631 30.3085 34.3976 35.1444C24.6383 25.4726 24.6383 9.72796 34.3976 0C39.2631 4.86398 41.7242 11.2181 41.7242 17.5722Z" fill="#056B5A"/>
<path d="M48.0049 64.019V59.2956C48.0049 58.0304 48.4575 56.9901 49.3344 56.1747C50.2113 55.3875 51.6257 54.9939 53.5776 54.9939C55.4446 54.9939 56.8307 55.3594 57.7076 56.0904C58.5845 56.8214 59.0371 57.8336 59.0371 59.0988V62.3039H50.4376V64.2158C50.4376 65.3123 50.6639 66.0995 51.0883 66.5494C51.5409 66.9992 52.3895 67.2241 53.6907 67.2241C54.4545 67.2241 55.0486 67.196 55.5012 67.1398C55.9538 67.0836 56.2649 66.9149 56.4912 66.6337C56.6892 66.3526 56.8307 65.8746 56.9156 65.1717H59.0371C58.924 66.2401 58.6977 67.0554 58.3299 67.6178C57.9622 68.1801 57.4247 68.5456 56.6892 68.7705C55.9538 68.9673 54.9637 69.0798 53.6907 69.0798C51.654 69.0798 50.2113 68.658 49.3344 67.8146C48.4575 66.9711 48.0049 65.7059 48.0049 64.019ZM56.6892 60.7013V58.8457C56.6892 58.0304 56.4064 57.4962 55.8406 57.215C55.2749 56.962 54.5111 56.8214 53.5776 56.8214C52.6158 56.8214 51.852 56.9901 51.2863 57.3275C50.7205 57.6649 50.4376 58.2553 50.4376 59.0706V60.7013H56.6892Z" fill="#056B5A"/>
<path d="M61.8096 49.5676H64.214V62.1071L70.7485 55.247H73.3793L67.8349 61.2074L73.9451 68.7986H71.1446L66.279 62.5008L64.214 64.5251V68.7986H61.8096V49.5676Z" fill="#056B5A"/>
<path d="M80.3666 69.0798C79.0087 69.0798 77.9055 68.883 77.0852 68.5175C76.2648 68.1519 75.6708 67.6459 75.2747 66.9992C74.907 66.3526 74.709 65.6216 74.709 64.7781V59.3237C74.709 58.4802 74.907 57.7492 75.2747 57.1026C75.6425 56.4559 76.2365 55.9498 77.0852 55.5562C77.9055 55.1907 79.0087 54.9939 80.3666 54.9939C81.7244 54.9939 82.7993 55.1907 83.6479 55.5562C84.4683 55.9217 85.0906 56.4278 85.4584 57.1026C85.8261 57.7492 86.0241 58.5083 86.0241 59.3237V64.7781C86.0241 65.6216 85.8261 66.3526 85.4584 66.9992C85.0906 67.6459 84.4683 68.1519 83.6479 68.5175C82.7993 68.883 81.7244 69.0798 80.3666 69.0798ZM80.3666 67.2523C81.3001 67.2523 82.0921 67.0836 82.6862 66.7462C83.2802 66.4088 83.5914 65.8184 83.5914 65.003V59.1269C83.5914 58.2834 83.2802 57.693 82.6862 57.3556C82.0921 57.0182 81.3001 56.8495 80.3666 56.8495C79.4048 56.8495 78.641 57.0182 78.0469 57.3556C77.4529 57.693 77.1417 58.2834 77.1417 59.1269V65.003C77.1417 65.8465 77.4529 66.4369 78.0469 66.7462C78.6127 67.0836 79.4048 67.2523 80.3666 67.2523Z" fill="#056B5A"/>
<path d="M88.9648 55.2469H91.3693V56.5684C91.7653 56.1185 92.3028 55.7249 92.9534 55.4437C93.6041 55.1626 94.4244 54.9939 95.4145 54.9939C96.546 54.9939 97.4512 55.1626 98.1301 55.5281C98.809 55.8936 99.3182 56.3716 99.6011 56.962C99.9122 57.5524 100.054 58.2272 100.054 58.9301V68.7705H97.6492V58.7895C97.6492 58.1147 97.3946 57.6086 96.8572 57.2994C96.3197 56.9901 95.6408 56.8214 94.7921 56.8214C93.6041 56.8214 92.7554 57.0463 92.1897 57.4962C91.6522 57.946 91.3693 58.4802 91.3693 59.155V68.7986H88.9648V55.2469Z" fill="#056B5A"/>
<path d="M108.399 74C107.494 74 106.702 73.9719 106.023 73.8875C105.372 73.8032 104.778 73.6907 104.269 73.4939L104.806 71.6945C105.174 71.8351 105.683 71.9476 106.334 72.0319C106.985 72.1163 107.635 72.1725 108.258 72.1725C109.446 72.1725 110.266 71.9195 110.803 71.4415C111.313 70.9354 111.596 70.2044 111.596 69.1923V67.3085C111.341 67.5334 111.001 67.7303 110.549 67.8708C110.125 68.0114 109.672 68.1239 109.219 68.1801C108.767 68.2363 108.399 68.2645 108.088 68.2645C106.362 68.2645 105.061 67.899 104.212 67.1398C103.364 66.4088 102.939 65.3123 102.939 63.9347V59.4643C102.939 58.1148 103.364 57.0182 104.184 56.2029C105.004 55.3876 106.334 54.9658 108.088 54.9658C108.54 54.9658 109.021 55.0221 109.531 55.1626C110.011 55.3032 110.464 55.4719 110.832 55.6687C111.2 55.8655 111.454 56.0904 111.596 56.2872V55.1907H114V68.405C114 69.4734 113.83 70.4012 113.491 71.2447C113.151 72.0882 112.557 72.7348 111.737 73.2128C110.917 73.7751 109.813 74 108.399 74ZM108.484 66.4369C109.389 66.4369 110.068 66.2964 110.577 66.0433C111.086 65.7903 111.426 65.5654 111.596 65.4248V58.7052C111.596 58.1148 111.341 57.6649 110.832 57.3275C110.323 56.9901 109.531 56.8496 108.456 56.8496C107.494 56.8496 106.758 57.0464 106.193 57.4119C105.627 57.8055 105.344 58.3959 105.344 59.2394V64.3283C105.344 65.1436 105.655 65.7059 106.249 65.9871C106.843 66.2964 107.579 66.4369 108.484 66.4369Z" fill="#056B5A"/>
</svg>
